/* XPM */
static char * download__2___1__xpm[] = {
"32 32 190 2",
"  	c #292929",
". 	c #444444",
"+ 	c #414141",
"@ 	c #262626",
"# 	c #282828",
"$ 	c #050112",
"% 	c #0E0626",
"& 	c #101025",
"* 	c #030209",
"= 	c #0C0522",
"- 	c #09001C",
"; 	c #120D14",
"> 	c #686868",
", 	c #1E1D14",
"' 	c #433301",
") 	c #53420C",
"! 	c #3B2A04",
"~ 	c #432D07",
"{ 	c #695125",
"] 	c #463501",
"^ 	c #191902",
"/ 	c #070B00",
"( 	c #686919",
"_ 	c #FEF649",
": 	c #FFFD2A",
"< 	c #FFED2B",
"[ 	c #FFFA26",
"} 	c #FEE222",
"| 	c #E5E008",
"1 	c #BEC720",
"2 	c #040102",
"3 	c #7B6E2A",
"4 	c #FFF53A",
"5 	c #E4CC01",
"6 	c #FFF515",
"7 	c #F6D926",
"8 	c #C2BB39",
"9 	c #080500",
"0 	c #685300",
"a 	c #FAE748",
"b 	c #F8E12D",
"c 	c #EBCC2D",
"d 	c #FEDC1A",
"e 	c #DCBB04",
"f 	c #F7D835",
"g 	c #B4A627",
"h 	c #221200",
"i 	c #575B4C",
"j 	c #090902",
"k 	c #A9A125",
"l 	c #E7CE19",
"m 	c #F9DE59",
"n 	c #F5EFBD",
"o 	c #EDE156",
"p 	c #FAE30A",
"q 	c #F8DC0C",
"r 	c #CDB108",
"s 	c #050501",
"t 	c #464541",
"u 	c #020112",
"v 	c #46400E",
"w 	c #EEE532",
"x 	c #FEED00",
"y 	c #F4E7B0",
"z 	c #F4EFCC",
"A 	c #F1E771",
"B 	c #F7DC15",
"C 	c #E6C502",
"D 	c #FFF324",
"E 	c #A0A21D",
"F 	c #0D0912",
"G 	c #433509",
"H 	c #FCEC22",
"I 	c #FEE31B",
"J 	c #F0E9C7",
"K 	c #EDEBD4",
"L 	c #FFF690",
"M 	c #FAE56D",
"N 	c #E9D224",
"O 	c #E4CA0B",
"P 	c #FFF12A",
"Q 	c #9D901E",
"R 	c #0A0013",
"S 	c #F0EAC2",
"T 	c #F0EDD6",
"U 	c #FFEE96",
"V 	c #FBE679",
"W 	c #9E940C",
"X 	c #0A0200",
"Y 	c #FEE117",
"Z 	c #F2E75B",
"` 	c #EEDD49",
" .	c #A1951A",
"..	c #483908",
"+.	c #F0EAC4",
"@.	c #EEECD9",
"#.	c #FBEB58",
"$.	c #ECD301",
"%.	c #9E9024",
"&.	c #07001B",
"*.	c #16101A",
"=.	c #F0EED5",
"-.	c #F4EDC6",
";.	c #F6E6B3",
">.	c #130D14",
",.	c #F5E61A",
"'.	c #F9D50C",
").	c #F4DA0D",
"!.	c #EFE7C5",
"~.	c #F1E4BB",
"{.	c #9C9415",
"].	c #EBCB03",
"^.	c #EDE6C8",
"/.	c #ECEAE0",
"(.	c #F7E25A",
"_.	c #3C3C3C",
":.	c #454545",
"<.	c #464646",
"[.	c #F2D402",
"}.	c #EEE6C3",
"|.	c #F9EB3B",
"1.	c #474747",
"2.	c #4F4F4F",
"3.	c #383838",
"4.	c #424242",
"5.	c #0C070E",
"6.	c #4A3A00",
"7.	c #EBDA04",
"8.	c #F3CD0A",
"9.	c #F0E7C1",
"0.	c #F0EDD4",
"a.	c #FFE043",
"b.	c #9C8F1D",
"c.	c #434343",
"d.	c #F2E6B3",
"e.	c #F3EECD",
"f.	c #FFDE41",
"g.	c #F3E6AC",
"h.	c #F1EDD1",
"i.	c #F2E7B2",
"j.	c #F1EDD2",
"k.	c #EEE7C8",
"l.	c #F1EED0",
"m.	c #F0E7BC",
"n.	c #F2EED0",
"o.	c #EED05B",
"p.	c #F0E7C0",
"q.	c #F2EECE",
"r.	c #E9DBAA",
"s.	c #02010F",
"t.	c #2F2004",
"u.	c #E7C40A",
"v.	c #EFE2B5",
"w.	c #F0EDE0",
"x.	c #EFCE38",
"y.	c #F4CC18",
"z.	c #090905",
"A.	c #1A1703",
"B.	c #CCBC1E",
"C.	c #FFF29D",
"D.	c #E7D04F",
"E.	c #EBD416",
"F.	c #1B1905",
"G.	c #070401",
"H.	c #926D15",
"I.	c #F0CC20",
"J.	c #EBD64E",
"K.	c #F8F1B0",
"L.	c #F9E078",
"M.	c #FAE74D",
"N.	c #B3A513",
"O.	c #1A1100",
"P.	c #070200",
"Q.	c #6A4F08",
"R.	c #F4DD86",
"S.	c #F1DFA9",
"T.	c #F3F1BC",
"U.	c #CABC42",
"V.	c #0E1200",
"W.	c #6D6500",
"X.	c #E6D718",
"Y.	c #EAE728",
"Z.	c #100F05",
"`.	c #8D8000",
" +	c #AA9C17",
".+	c #9A9B13",
"++	c #121003",
"@+	c #6C6352",
"#+	c #150B00",
"$+	c #493E46",
"    .   .     .   .       + . . @ #     .     .       .   .   . ",
"  . . . . . . . . . . . + $ % & * = - ; . . . . . . . . . . . > ",
"  . . . . . . . . . . . , ' ) ! ~ { ] ^ . . . . . . . . . . . . ",
". . . . . . . . . . . / ( _ : < [ } | 1 2 . . . . . . . . . . > ",
"  . . . . . . . . . . 2 3 4 5 6 5 7 4 8 2 . . . . . . . . . . > ",
"  . . . . . . . . . . 9 0 a b c d e f g h . . . . . . . . . . > ",
". . . . . . . . . i j k l 7 m n o p q r g s t . . . . . . . . . ",
"  . . . . . . . . u v w x < y z A B C d D E 2 . . . . . . . . . ",
"  . . . . . . . . F G H } I J K L M N O P Q R . . . . . . . . > ",
"  . . . . . . . . F G H } I S T U V N O D W X . . . . . . . . > ",
". . . . . . . . . F G H d Y S K Z ` 5 C D  .R . . . . . . . . > ",
". . . . . . . . . F ..H d Y +.@.#.a $.C P %.&.. . . . . . . . > ",
". . . . . . . . . *...H d Y S =.-.;.f l P W X . . . . . . . . > ",
"  . . . . . . . . >...,.'.).!.@.y ~.l O P {.2 . . . . . . . . > ",
"  . . . . . . . . F ~ ).].$.^./.(.7 5 C P %.&.. . . . . . . . > ",
"  _.. :.. . <.. . >.] ).].[.}.@.|.b $.$.[  .2 1.<.. :.1.:.. 2.> ",
"  3.4.. . . . . . 5.6.7.8.C 9.0.a.q [.].< b.X . . c.+ . c.. . . ",
"  . . . . . . . . 5.6.7.8.C d.e.a.q [.].< b.X . . . . . . . . . ",
"  . . . . . . . . 5.6.7.8.].d.e.f.).$.].< b.X . . . . . . . . . ",
"  . . . . . . . . 5.6.7.8.].g.h.f.).].].< Q X . . . . . . . . > ",
". . . . . . . . . 5.] 7.8.].i.j.f [.].].< Q X . . . . . . . . > ",
"  . . . . . . . . 5.] $.8.].k.l.f $.5 ].< Q X . . . . . . . . . ",
". . . . . . . . . F ] $.8.].m.n.o.].5 ].< Q X . . . . . . . . > ",
"  . . . . . . . . F ] $.8.].p.q.r.].5 ].< Q 2 . . . . . . . . > ",
"  . . . . . . . . s.t.f [.u.v.w.x.].y.y.,.{.X . . . . . . . . > ",
"  . . . . . . . . z.A.B.5 [.#.C.D.$.].E.a F./ . . . . . . . . > ",
"  . . . . . . . . . . G.H.I.e J.K.L.M.N.O.. . . . . . . . . . > ",
". . . . . . . . . . . P.Q.7 '.y.R.S.T.U.X . . . . . . . . . . > ",
"  .   . . . . . . . . V.W.X.p 7 Y.|.P N.X . . . . . . . . . . . ",
"    . . . . . . . . . . Z.%.`. +.+g k ++@+. . . . . . . . . . > ",
"  . . . . . . . . . . . . #+2 2 2 X X $+. . . . . . . . . . . > ",
"    > > . > . > > > > . > > > >   . > > . > > . > > > > . > > > "};
