/* XPM */
static char * download__1___5__1_xpm[] = {
"32 32 218 2",
"  	c #292929",
". 	c #444444",
"+ 	c #020301",
"@ 	c #131109",
"# 	c #191613",
"$ 	c #151601",
"% 	c #686868",
"& 	c #212013",
"* 	c #2F2F08",
"= 	c #4A4407",
"- 	c #463D16",
"; 	c #493C33",
"> 	c #4A3F21",
", 	c #494319",
"' 	c #393513",
") 	c #36352E",
"! 	c #1B0B00",
"~ 	c #7B701E",
"{ 	c #FFFC64",
"] 	c #FFF789",
"^ 	c #FEF5CF",
"/ 	c #FEFEB8",
"( 	c #FFF997",
"_ 	c #FAF6A6",
": 	c #5E592A",
"< 	c #0C0D03",
"[ 	c #0A0905",
"} 	c #756704",
"| 	c #B7AA0E",
"1 	c #FFFF45",
"2 	c #E9D615",
"3 	c #EDDD32",
"4 	c #ECDD44",
"5 	c #F8E739",
"6 	c #DCCE2F",
"7 	c #F9E75B",
"8 	c #B7AA44",
"9 	c #827C3E",
"0 	c #161611",
"a 	c #130101",
"b 	c #695C00",
"c 	c #FFF43A",
"d 	c #FCF418",
"e 	c #F5DB1B",
"f 	c #DEBF17",
"g 	c #ECCC0A",
"h 	c #EADA03",
"i 	c #E4D100",
"j 	c #D8C607",
"k 	c #DDCA18",
"l 	c #F6E54A",
"m 	c #4B4413",
"n 	c #0B0101",
"o 	c #050604",
"p 	c #867C30",
"q 	c #F9E51A",
"r 	c #FCDA05",
"s 	c #FEE135",
"t 	c #F5DA14",
"u 	c #F4DA0C",
"v 	c #F3D50D",
"w 	c #FFEC25",
"x 	c #FCDD14",
"y 	c #E6C506",
"z 	c #F3E343",
"A 	c #B9B476",
"B 	c #242424",
"C 	c #222419",
"D 	c #EBE616",
"E 	c #FCDC2B",
"F 	c #FCD51B",
"G 	c #F1CA01",
"H 	c #FAE808",
"I 	c #FFE323",
"J 	c #FCEA46",
"K 	c #FBDB0D",
"L 	c #E8C914",
"M 	c #F7E768",
"N 	c #FEFAAA",
"O 	c #161411",
"P 	c #312A29",
"Q 	c #EBCD03",
"R 	c #F4D421",
"S 	c #FDEB4B",
"T 	c #FCF7DE",
"U 	c #F9ED94",
"V 	c #F2D304",
"W 	c #EDD104",
"X 	c #FFEDAD",
"Y 	c #140D03",
"Z 	c #221E1D",
"` 	c #424242",
" .	c #040402",
"..	c #544000",
"+.	c #FEE31B",
"@.	c #F4D31B",
"#.	c #F7D927",
"$.	c #F7ED9A",
"%.	c #F8ED88",
"&.	c #FFE657",
"*.	c #F2DE43",
"=.	c #484734",
"-.	c #1A1B1A",
";.	c #060702",
">.	c #807D1D",
",.	c #F4D513",
"'.	c #FBDD25",
").	c #FDDD1A",
"!.	c #F3E304",
"~.	c #F7E845",
"{.	c #FBF9DF",
"].	c #F8EF9E",
"^.	c #0B1300",
"/.	c #FFD604",
"(.	c #F3DA01",
"_.	c #FCF6D4",
":.	c #FEEE83",
"<.	c #FDE214",
"[.	c #EBE762",
"}.	c #D8D484",
"|.	c #FBD512",
"1.	c #FBF7D8",
"2.	c #FCF098",
"3.	c #FCD50D",
"4.	c #FCFDC2",
"5.	c #D7CE7F",
"6.	c #FBF3BD",
"7.	c #FBEF90",
"8.	c #F3CA0E",
"9.	c #FEF3A0",
"0.	c #CECC77",
"a.	c #170712",
"b.	c #FBF5C5",
"c.	c #FCF19D",
"d.	c #FDFABF",
"e.	c #D9D188",
"f.	c #3C3C3C",
"g.	c #454545",
"h.	c #DCD104",
"i.	c #EFD20F",
"j.	c #FCF6D3",
"k.	c #FEEC97",
"l.	c #FDE99A",
"m.	c #E8DE92",
"n.	c #474747",
"o.	c #4F4F4F",
"p.	c #383838",
"q.	c #0D000B",
"r.	c #FDE401",
"s.	c #FBF7CC",
"t.	c #FDF4AA",
"u.	c #E9DF98",
"v.	c #434343",
"w.	c #FBF3BF",
"x.	c #FCF091",
"y.	c #FBF39A",
"z.	c #D8D586",
"A.	c #FBF6CC",
"B.	c #FCF19F",
"C.	c #FBF3B8",
"D.	c #D3CA87",
"E.	c #FCF6D0",
"F.	c #FEF19B",
"G.	c #E5CA02",
"H.	c #F8EEA7",
"I.	c #DBD893",
"J.	c #FCF3C5",
"K.	c #FEEF8A",
"L.	c #FDFDBA",
"M.	c #E4E692",
"N.	c #CFCA12",
"O.	c #FCF0A7",
"P.	c #FDE443",
"Q.	c #FBF7C0",
"R.	c #CFCD7A",
"S.	c #070C01",
"T.	c #101010",
"U.	c #343401",
"V.	c #96812E",
"W.	c #F8ECB7",
"X.	c #928445",
"Y.	c #6B6A4F",
"Z.	c #040503",
"`.	c #030401",
" +	c #2A1823",
".+	c #FCDA37",
"++	c #070505",
"@+	c #0D0E01",
"#+	c #272B14",
"$+	c #EAE303",
"%+	c #EED228",
"&+	c #050502",
"*+	c #030402",
"=+	c #C5B510",
"-+	c #D8D103",
";+	c #151210",
">+	c #474746",
",+	c #120101",
"'+	c #F4CA18",
")+	c #FFFC37",
"!+	c #040301",
"~+	c #443470",
"{+	c #989716",
"]+	c #DBAE00",
"^+	c #E3BB00",
"/+	c #D9BF08",
"(+	c #97932B",
"_+	c #030301",
":+	c #8C810B",
"<+	c #FFF600",
"[+	c #7E7405",
"}+	c #989208",
"|+	c #988E00",
"1+	c #A69605",
"2+	c #9C9300",
"3+	c #8E8B21",
"4+	c #0B0018",
"5+	c #0C0016",
"    .   .     .   .       . . .         .     .       .   .   . ",
"  . . . . . . . . . . . + @ # @ + # $ + . . . . . . . . . . . % ",
"  . . . . . . . . . . & * = - ; > , , ' ) . . . . . . . . . . . ",
". . . . . . . . . . ! ~ { { ] ^ / ] ( _ : < . . . . . . . . . % ",
"  . . . . . . . . [ } | 1 2 3 4 3 5 6 7 8 9 0 . . . . . . . . % ",
"  . . . . . . . a b c d e f g h h i j k l ] m n . . . . . . . % ",
". . . . . . . o p | q r g s t i u v w x y z 8 A B . . . . . . . ",
"  . . . . . < C D c E F G H I J E c F x K L M N O # . . . . . . ",
"  . . . . . @ P q w x Q g R s S T U J s V W M X Y Z . . . . . % ",
"  . . . . `  ...q +.t V v @.#.5 $.%.J &.e v *.M = =.-.. . . . % ",
". . . . . ;.>.*.e e v u x t ,.'.).!.~.{.].t e 2 ( A ^.. . . . % ",
". . . . . n k u I ,.Q u +.u W t /.(.z _.:.<.V Q [.}.+ . . . . % ",
". . . . . n 2 r I ,.Q u +.u W K |.(.z 1.2.<.3.G 4.5.+ . . . . % ",
"  . . . . n j x I ,.Q u +.u V K '.r z 6.7.+.F 8.9.0.< . . . . % ",
"  . . . . a.j x ).|.g v +.K V K ).(.z b.c.).,.g d.e.+ . . . . % ",
"  f.. g.. n h.H x |.g i.+.x V 3.r (.l j.k.).v i l.m.+ n.g.. o.% ",
"  p.` . . q.h.r.+.,.g ,.+.x V K F (.l b.s.e @.g t.u.+ . v.. . . ",
"  . . . . n j K +.,.g ,.+.,.V x 3.(.z w.x.x ,.Q y.z.n . . . . . ",
"  . . . . a k F +.v g e +.v Q <./.(.5 A.B.<.V Q C.D.@ . . . . . ",
"  . . . . n 2 3.+.v Q t I v Q x r (.z E.F.<.V G.H.I.+ . . . . % ",
". . . . . n D r.+.,.y ,.I x V K 3.(.l J.K.).v G.L.M.+ . . . . % ",
"  . . . . # N.#.+.t g i.+.x u u |.(.z O.P.x @.g Q.R.S.. . . . . ",
". . . . . T.U.V.v ).,.i.x x K K 3.(.W.&.'.(.@.R X.Y.Z.. . . . % ",
"  . . . . . `. +W +.).i.v x K K /.(.t .+v V F E ! ++. . . . . % ",
"  . . . . . @+#+(.@.s I y .+t r.$+!.c %+.+#.R s &+C . . . . . % ",
"  . . . . . . *+=+u G.Q V V w R P.#.Q <.V j H -+;+>+. . . . . % ",
"  . . . . . . . ,+} d H '.|.G '+G F '+Q H )+b !+. . . . . . . % ",
". . . . . . . . ~+*+{+k .+'+]+8.^+8.'+/+N.(+ .. . . . . . . . % ",
"  .   . . . . . . . _+:+d !.<+r.w r.H )+[+!+. . . . . . . . . . ",
"    . . . . . . . . .  .}+|+1+2+1+|+2+3+*+. . . . . . . . . . % ",
"  . . . . . . . . . . . q.4+4+5+n n q.+ . . . . . . . . . . . % ",
"    % % . % . % % % % . % % % %   . % % . % % . % % % % . % % % "};
