/* XPM */
static char * download__1___2__xpm[] = {
"32 32 197 2",
"  	c #292929",
". 	c #444444",
"+ 	c #1A1716",
"@ 	c #272320",
"# 	c #0C0C02",
"$ 	c #020301",
"% 	c #131207",
"& 	c #686868",
"* 	c #3C3C24",
"= 	c #42441C",
"- 	c #504F2B",
"; 	c #363718",
"> 	c #575627",
", 	c #413616",
"' 	c #514B11",
") 	c #474A48",
"! 	c #CDC67C",
"~ 	c #F3EA94",
"{ 	c #F8F290",
"] 	c #FFFFA8",
"^ 	c #FFEDA5",
"/ 	c #FFFB8E",
"( 	c #FFFF54",
"_ 	c #FBF069",
": 	c #291404",
"< 	c #100022",
"[ 	c #414141",
"} 	c #2B2B32",
"| 	c #373528",
"1 	c #746C11",
"2 	c #DFCE4C",
"3 	c #FFEB5C",
"4 	c #E9D637",
"5 	c #F5E143",
"6 	c #FDE669",
"7 	c #D8CA04",
"8 	c #E8D708",
"9 	c #E7DB27",
"0 	c #8A7806",
"a 	c #8F7D4B",
"b 	c #3F4039",
"c 	c #090202",
"d 	c #BCAF6B",
"e 	c #FFFC7C",
"f 	c #DAC217",
"g 	c #E5C70A",
"h 	c #F5D61A",
"i 	c #EBCE0A",
"j 	c #EBD101",
"k 	c #FFF342",
"l 	c #FCDC23",
"m 	c #FAEB00",
"n 	c #E7E037",
"o 	c #0A0202",
"p 	c #513D56",
"q 	c #302F22",
"r 	c #5B5A43",
"s 	c #B9B269",
"t 	c #CFC549",
"u 	c #FEE215",
"v 	c #F4D40B",
"w 	c #E5CC01",
"x 	c #FDE50B",
"y 	c #FEEA29",
"z 	c #DFB410",
"A 	c #F8D314",
"B 	c #FFF40E",
"C 	c #EAD103",
"D 	c #8F8B20",
"E 	c #4B482C",
"F 	c #3C383D",
"G 	c #848165",
"H 	c #F6F47C",
"I 	c #E8E137",
"J 	c #FEE41C",
"K 	c #FCD624",
"L 	c #FFEA34",
"M 	c #F6E318",
"N 	c #F6CD29",
"O 	c #FCDB1B",
"P 	c #F1CA02",
"Q 	c #FCE22C",
"R 	c #EEE91E",
"S 	c #8F8D0A",
"T 	c #0B0202",
"U 	c #8A8669",
"V 	c #EDDC66",
"W 	c #F4DB0C",
"X 	c #FEE751",
"Y 	c #FAEB89",
"Z 	c #FDEB4C",
"` 	c #FBE333",
" .	c #F4D404",
"..	c #FCD402",
"+.	c #FDE424",
"@.	c #F5E039",
"#.	c #B7AA15",
"$.	c #0A000A",
"%.	c #3E3E3E",
"&.	c #1A1200",
"*.	c #A09845",
"=.	c #EED644",
"-.	c #F4D927",
";.	c #F5D612",
">.	c #FADC0C",
",.	c #CDBA16",
"'.	c #4C491E",
").	c #F5F496",
"!.	c #DFD33F",
"~.	c #F3DA03",
"{.	c #F4DB1B",
"].	c #F5DB2B",
"^.	c #F4DC35",
"/.	c #F4DB15",
"(.	c #F2CD14",
"_.	c #ECCF1B",
":.	c #7A7112",
"<.	c #F9E838",
"[.	c #F6E323",
"}.	c #FFED7B",
"|.	c #FEEB75",
"1.	c #ECD517",
"2.	c #FBDB14",
"3.	c #FCDA02",
"4.	c #8B7C0B",
"5.	c #595937",
"6.	c #FFF888",
"7.	c #FAD61B",
"8.	c #FEEB6C",
"9.	c #F4E401",
"0.	c #9A8518",
"a.	c #05020D",
"b.	c #727154",
"c.	c #FFFE9C",
"d.	c #F7C413",
"e.	c #FBCD18",
"f.	c #FEEC0D",
"g.	c #8D7B14",
"h.	c #F3C908",
"i.	c #3C3C3C",
"j.	c #454545",
"k.	c #59602A",
"l.	c #FFE672",
"m.	c #FBE200",
"n.	c #FAD50D",
"o.	c #ECCD02",
"p.	c #474747",
"q.	c #4F4F4F",
"r.	c #383838",
"s.	c #424242",
"t.	c #FFFDA2",
"u.	c #EBC300",
"v.	c #FDEB63",
"w.	c #434343",
"x.	c #120402",
"y.	c #0A0A0A",
"z.	c #85770A",
"A.	c #4D5021",
"B.	c #FFF411",
"C.	c #7F7402",
"D.	c #847C3B",
"E.	c #B6A732",
"F.	c #FEE448",
"G.	c #D8B703",
"H.	c #595941",
"I.	c #8B842F",
"J.	c #FEE13C",
"K.	c #B69B00",
"L.	c #7F8627",
"M.	c #E3E200",
"N.	c #EFE21B",
"O.	c #EFF300",
"P.	c #FFF402",
"Q.	c #6E6A43",
"R.	c #EFC322",
"S.	c #DCCD2A",
"T.	c #240A00",
"U.	c #25194F",
"V.	c #A5A356",
"W.	c #BCBA10",
"X.	c #F2CA37",
"Y.	c #F4D84F",
"Z.	c #AAA528",
"`.	c #302134",
" +	c #413D43",
".+	c #170A04",
"++	c #FFF11F",
"@+	c #FFF932",
"#+	c #5C535E",
"$+	c #857F2D",
"%+	c #A2A100",
"&+	c #978A03",
"*+	c #A79614",
"=+	c #A18F07",
"-+	c #9E9A00",
";+	c #5F565F",
">+	c #0C0813",
"    .   .     .   .       . . .         .     .       .   .   . ",
"  . . . . . . . . . . + @ # $ % $ + $ + . . . . . . . . . . . & ",
"  . . . . . . . . . . * = - - ; > , ' ' . . . . . . . . . . . . ",
". . . . . . . . . ) $ ! ~ { ] ] ^ / ( _ : < . . . . . . . . . & ",
"  . . . . . . [ } | 1 2 3 4 5 4 6 7 8 9 0 a . . . . . . . . . & ",
"  . . . . . [ b c d e f g h i j i j k l m n o p . . . . . . . & ",
". . . . . . q r s t 9 u v l w x j y z A B C D E F . . . . . . . ",
"  . . . . . $ G H I 7 x J K L M y N O P N Q R S $ . . . . . . . ",
"  . . . . . T U / V 7 W L X ~ Y Z ` v  ...+.@.#.$.. . . . . . & ",
"  . . . . %.&.*.Z =.8 Q Z 5 6 Z ` -.;.>. .O ` ,.&.. . . . . . & ",
". . . . $ '.).!.~.-.{.3 6 ].^.x {./.;.O v (.Q _.9 :.# . . . . & ",
". . . . T > e <.P h [.}.|.1.2.3.~.v ;.+.(.g +./.m 4.$ . . . . & ",
". . . . $ 5.6.^.P 7.[.}.8.W 2...~.~.v +.(.g J /.9.0.T . . . . & ",
"  . . . a.b.c.=.d.K [.}.8.9.2.e.3. .v J (.i J W f.g.T . . . . & ",
"  . . . $ = Y X h.O J }.8.9.>.e. . .>.J i i +.;.~.g.T . . . . & ",
"  i.. j.$ k.c.4 w >.J Y l.9.m.v P n.2.u o.i +.h f.0 $ p.j.. q.& ",
"  r.s.. a.- t.4 u.l y 8.v./.O ....n.O Q v o.J 2.m 4.T . w.. . . ",
"  . . . $ > c.4 o.l [.8.6 /.O .... .h +.v o.J ;.B 4.T . . . . . ",
"  . . . $ > 6.^.P 7.[.|.l.{.O ..3. .A +. .w u ;.x 0 x.. . . . . ",
"  . . . y.> 6.@.o.7.[.}.|.{.O 3.3. .A +. .o.J O m.z.T . . . . & ",
". . . . $ A.c.5 o.h [.}.8./.2.3.3. .2.J j w J l B.C.o . . . . & ",
"  . . . $ 5.t.2 o.h M v.3 W ;.3.~.>.2.O j j +._.9 g.# . . . . . ",
". . . . . b D.E./.h 8 F.F.~.;. .>.O /./.i /.+.G.:.H.. . . . . & ",
"  . . . . . T I.+.h w ^.J.~.;.v >.O ;.;.v J -.K.T [ . . . . . & ",
"  . . . . . $ L.Z ].i n.l L M M.N.Q -.(.K l Q K.$ . . . . . . & ",
"  . . . . . &.I.O.8 w P. .K J.].L ].G.m. .{.N.#.y.. . . . . . & ",
"  . . . . . . Q.o #.B.i R.(.>.w o.m O -.P.S.T.p . . . . . . . & ",
". . . . . . . [ U.V.W.f X.(.u.u.G.u.F.Y.7 Z.`.. . . . . . . . & ",
"  .   . . . . . .  +.+4 P.f.v ++@+-.9.8 : &.. . . . . . . . . . ",
"    . . . . . . . [ #+$+%+&+*+&+&+=+-+Z.;+. . . . . . . . . . & ",
"  . . . . . . . . . [ + >+$ .+a..+x.$.>+. . . . . . . . . . . & ",
"    & & . & . & & & & . & & & &   . & & . & & . & & & & . & & & "};
