/* XPM */
static char * download__1___4__xpm[] = {
"32 32 111 2",
"  	c #292929",
". 	c #444444",
"+ 	c #6B7471",
"@ 	c #191C2F",
"# 	c #171600",
"$ 	c #130200",
"% 	c #140D00",
"& 	c #1A1D00",
"* 	c #13152A",
"= 	c #848484",
"- 	c #686868",
"; 	c #545955",
"> 	c #050000",
", 	c #494100",
"' 	c #5A4600",
") 	c #5C4D00",
"! 	c #3A3800",
"~ 	c #727571",
"{ 	c #5A5A5C",
"] 	c #CDC147",
"^ 	c #FAE54E",
"/ 	c #B2AC34",
"( 	c #0A0001",
"_ 	c #827D81",
": 	c #525255",
"< 	c #DACD35",
"[ 	c #FFEB25",
"} 	c #C1B724",
"| 	c #787379",
"1 	c #595B62",
"2 	c #DACC2D",
"3 	c #F9DA02",
"4 	c #FBE614",
"5 	c #C2B71F",
"6 	c #797681",
"7 	c #FEE70F",
"8 	c #FFEE1E",
"9 	c #BBB322",
"0 	c #7A7987",
"a 	c #4E5460",
"b 	c #D3C936",
"c 	c #FFF128",
"d 	c #B0A81F",
"e 	c #808193",
"f 	c #D7CC1C",
"g 	c #FFE429",
"h 	c #B6AE0D",
"i 	c #06000D",
"j 	c #747972",
"k 	c #D8CD1D",
"l 	c #FFEE28",
"m 	c #B8B00F",
"n 	c #53565A",
"o 	c #BAB211",
"p 	c #0A000D",
"q 	c #D2C717",
"r 	c #FEDF24",
"s 	c #FFE524",
"t 	c #3C3C3C",
"u 	c #454545",
"v 	c #464646",
"w 	c #CCC111",
"x 	c #F8D91E",
"y 	c #F5DD17",
"z 	c #AFA706",
"A 	c #474747",
"B 	c #4F4F4F",
"C 	c #383838",
"D 	c #424242",
"E 	c #54595D",
"F 	c #C2B600",
"G 	c #F4D20E",
"H 	c #F5D401",
"I 	c #B39F0C",
"J 	c #777F68",
"K 	c #434343",
"L 	c #414141",
"M 	c #F7D511",
"N 	c #F8D700",
"O 	c #F9D713",
"P 	c #B4A10D",
"Q 	c #757D66",
"R 	c #58636D",
"S 	c #C9B82A",
"T 	c #F9DD10",
"U 	c #AA9B0E",
"V 	c #6D6F7E",
"W 	c #C9B91E",
"X 	c #ECCD00",
"Y 	c #7B7A88",
"Z 	c #5D6065",
"` 	c #CCBB16",
" .	c #F6D900",
"..	c #716E77",
"+.	c #C7B815",
"@.	c #EDD300",
"#.	c #E4C600",
"$.	c #BCAA0A",
"%.	c #4E4D4B",
"&.	c #C9BD35",
"*.	c #FCE63A",
"=.	c #F8DD34",
"-.	c #B9AB26",
";.	c #0C0A02",
">.	c #7A751A",
",.	c #998820",
"'.	c #AE9632",
").	c #746A13",
"!.	c #80807E",
"~.	c #010012",
"{.	c #7D8381",
"    .   .     .   .       . . .         .     .       .   .   . ",
"  . . . . . . . . . . . + @ # $ % & * = . . . . . . . . . . . - ",
"  . . . . . . . . . . . ; > , ' ) ! > ~ . . . . . . . . . . . . ",
". . . . . . . . . . . . { % ] ^ ^ / ( _ . . . . . . . . . . . - ",
"  . . . . . . . . . . . : ( < [ [ } ( | . . . . . . . . . . . - ",
"  . . . . . . . . . . . 1 ( 2 3 4 5 ( 6 . . . . . . . . . . . - ",
". . . . . . . . . . . . 1 > < 7 8 9 ( 0 . . . . . . . . . . . . ",
"  . . . . . . . . . . . a > b 4 c d > e . . . . . . . . . . . . ",
"  . . . . . . . . . . . : > f g [ h i j . . . . . . . . . . . - ",
"  . . . . . . . .   . . : ( k g l m i j . . . . . . . . . . . - ",
". . . . . . . . . .   . n ( k g [ h i j . . . . . . . . . . . - ",
". . . . . . . . . . .   n ( f g [ h i j . . . . . . . . . . . - ",
". . . . . . . . . . .   n ( f g [ h i ~ . . . . . . . . . . . - ",
"  . . . . . . . . . . . { ( f g l o p ~ . . . . . . . . . . . - ",
"  . . . . . . . . . . . { ( q r s h p j . . . . . . . . . . . - ",
"  t . u . . v . . . u u n ( w x y z i j . v . A v . u A u . B - ",
"  C D . . . . . . . . . E ( F G H I p J . . . . . K L . K . . . ",
"  . . . . . . . . . . . E ( F G H I ( J . . . . . . . . . . . . ",
"  . . . . . . . . . . . n ( F M N I ( J . . . . . . . . . . . . ",
"  . . . . . . . . . . . n ( F O N P ( J . . . . . . . . . . . - ",
". . . . . . . . . . . . n ( F O N I ( Q   . . . . . . . . . . - ",
"  . . . . . . . . . . . n ( F M H P ( Q . . . . . . . . . . . . ",
". . . . . . . . . . . . E ( F G H P p Q . . . . . . . . . . . - ",
"  . . . . . . . . . . . E ( F G H P p Q . . . . . . . . . . . - ",
"  . . . . . . . . . . . R > S H T U ( V . . . . . . . . . . . - ",
"  . . . . . . . . . . . R > W X X P ( Y . . . . . . . . . . . - ",
"  . . . . . . . . . . . Z ( ` X  .` ( ... . . . . . . . . . . - ",
". . . . . . . . . . . . n ( +.@.#.$.( _ . . . . . . . . . . . - ",
"  .   . . . . . . . . . %.( &.*.=.-.( = . . . . . . . . . . . . ",
"    . . . . . . . . . . { ;.>.,.'.).> !.. . . . . . . . . . . - ",
"  . . . . . . . . . . . : i ;.( $ ( ~.{.. . . . . . . . . . . - ",
"    - - . - . - - - - . - - - -   . - - . - - . - - - - . - - - "};
