/* XPM */
static char * download__1___3__xpm[] = {
"32 32 161 2",
"  	c #292929",
". 	c #444444",
"+ 	c #372D42",
"@ 	c #10011E",
"# 	c #050015",
"$ 	c #070433",
"% 	c #1A1625",
"& 	c #130F26",
"* 	c #00000E",
"= 	c #686868",
"- 	c #3E3B08",
"; 	c #4E4907",
"> 	c #654E25",
", 	c #452B10",
"' 	c #534312",
") 	c #3E3808",
"! 	c #45453C",
"~ 	c #383C43",
"{ 	c #050201",
"] 	c #CBD339",
"^ 	c #FDF72E",
"/ 	c #FFE734",
"( 	c #FFF533",
"_ 	c #EDE949",
": 	c #4C480C",
"< 	c #3C3B58",
"[ 	c #D1C942",
"} 	c #F5DC13",
"| 	c #F2D107",
"1 	c #F9E807",
"2 	c #FDF301",
"3 	c #DDCE00",
"4 	c #595107",
"5 	c #343039",
"6 	c #080101",
"7 	c #CEB83A",
"8 	c #FDEB3D",
"9 	c #E7C406",
"0 	c #ECCE0B",
"a 	c #EDD325",
"b 	c #FDEB29",
"c 	c #FBEC43",
"d 	c #4B3900",
"e 	c #180A04",
"f 	c #414141",
"g 	c #2E2D1C",
"h 	c #878531",
"i 	c #C8B821",
"j 	c #E4C616",
"k 	c #F4D50B",
"l 	c #FEEE22",
"m 	c #FFF493",
"n 	c #F4DE63",
"o 	c #F6DB38",
"p 	c #A7963E",
"q 	c #362E26",
"r 	c #A6A222",
"s 	c #FEF116",
"t 	c #FDE417",
"u 	c #D6B300",
"v 	c #FAE719",
"w 	c #F7E655",
"x 	c #FFF09C",
"y 	c #F6E067",
"z 	c #FFF806",
"A 	c #F4E639",
"B 	c #332600",
"C 	c #131018",
"D 	c #0A0101",
"E 	c #B0AA00",
"F 	c #EBD300",
"G 	c #EAD50A",
"H 	c #FDE973",
"I 	c #FDEEAC",
"J 	c #FBF1AB",
"K 	c #FAE566",
"L 	c #FDDC1C",
"M 	c #F6E824",
"N 	c #382700",
"O 	c #221F2A",
"P 	c #AEA50C",
"Q 	c #EBCD2B",
"R 	c #FFE588",
"S 	c #FFE6B4",
"T 	c #332500",
"U 	c #1E1A27",
"V 	c #AEA316",
"W 	c #E5CB02",
"X 	c #362800",
"Y 	c #FEF2B5",
"Z 	c #FCE46A",
"` 	c #F4CF24",
" .	c #F4D336",
"..	c #F7D714",
"+.	c #FEEB12",
"@.	c #EDD115",
"#.	c #FBDE99",
"$.	c #EBCB02",
"%.	c #F9E325",
"&.	c #EDE111",
"*.	c #3C3C3C",
"=.	c #454545",
"-.	c #464646",
";.	c #FFF3B9",
">.	c #EADA0B",
",.	c #474747",
"'.	c #4F4F4F",
").	c #383838",
"!.	c #424242",
"~.	c #ACA123",
"{.	c #FFE346",
"].	c #FBEFB3",
"^.	c #F1CB04",
"/.	c #E7D507",
"(.	c #434343",
"_.	c #AA9F21",
":.	c #FFF123",
"<.	c #161221",
"[.	c #090101",
"}.	c #938C27",
"|.	c #DDC201",
"1.	c #FBE42B",
"2.	c #FCF8DD",
"3.	c #E2BE10",
"4.	c #F4D927",
"5.	c #291A01",
"6.	c #161004",
"7.	c #A09E47",
"8.	c #E9D618",
"9.	c #EDD348",
"0.	c #F0D900",
"a.	c #C7B90E",
"b.	c #464106",
"c.	c #252A10",
"d.	c #2D3021",
"e.	c #241701",
"f.	c #E8DB00",
"g.	c #6A4700",
"h.	c #210D15",
"i.	c #3B4047",
"j.	c #D8CE39",
"k.	c #FFF376",
"l.	c #FCEF6D",
"m.	c #4F3411",
"n.	c #08001A",
"o.	c #514C62",
"p.	c #100B03",
"q.	c #CCC80F",
"r.	c #E1E700",
"s.	c #554E06",
"t.	c #5E564B",
"u.	c #504913",
"v.	c #AFA12B",
"w.	c #B7A92D",
"x.	c #ABA300",
"y.	c #A69B03",
"z.	c #958C0D",
"A.	c #534D2F",
"B.	c #3A3B45",
"C.	c #473B55",
"D.	c #14140D",
"    .   .     .   .       . . .         .     .       .   .   . ",
"  . . . . . . . . . . . + @ # $ % & * . . . . . . . . . . . . = ",
"  . . . . . . . . . . . - ; > , , ' ) ! . . . . . . . . . . . . ",
". . . . . . . . . . ~ { ] ^ / ( / ( _ : { . . . . . . . . . . = ",
"  . . . . . . . . . < { [ } | 1 2 3 ^ 4 { . . . . . . . . . . = ",
"  . . . . . . . . . 5 6 7 8 9 0 a b c d e . . . . . . . . . . = ",
". . . . . . . . f g h i j k l a m n o i p q . . . . . . . . . . ",
"  . . . . . . . . { r s t u v w x y b z A B C . . . . . . . . . ",
"  . . . . . . . . D E 2 F G H I J K t L M N O . . . . . . . . = ",
"  . . . . . . . . D P b Q Q R S I K t L M T U . . . . . . . . = ",
". . . . . . . . . D V b j W A w J K t L M X U . . . . . . . . = ",
". . . . . . . . . D V l 0 F b c Y Z t L l N U . . . . . . . . = ",
". . . . . . . . . { P b `  .R S Y K } ..l N U . . . . . . . . = ",
"  . . . . . . . . D P +.0 @.Z #.Y n k | v T % . . . . . . . . = ",
"  . . . . . . . . D P +.$.F t %.Y n $.$.&.T % . . . . . . . . = ",
"  *.. =.. . -.. . { V / ` k / 8 ;.n $.W >.T U ,.-.. =.,.=.. '.= ",
"  ).!.. . . . . . D ~.l 0 k k {.].y $.^./.N % . . (.f . (.. . . ",
"  . . . . . . . . { _.l 0 k k {.Y y $.^./.N U . . . . . . . . . ",
"  . . . . . . . . { _.l 0 k G o Y y $.^./.N U . . . . . . . . . ",
"  . . . . . . . . D ~.:.0 | $. .Y y $.^.G N U . . . . . . . . = ",
". . . . . . . . . D ~.:.$.0 W  .Y y $.$.G N U . . . . . . . . = ",
"  . . . . . . . . { ~.l $.| $. .Y y $.$.G N U . . . . . . . . . ",
". . . . . . . . . D ~.l $.| $.o Y n $.^.>.N <.. . . . . . . . = ",
"  . . . . . . . . D ~.l $.0 W  .Y n $.^.>.N <.. . . . . . . . = ",
"  . . . . . . . . [.}.v | ^.|.1.2.H 3.F 4.5.C . . . . . . . . = ",
"  . . . . . . . . 6.7._ 8.|.1.9.I 9.} 0.a.b.c.. . . . . . . . = ",
"  . . . . . . . . . d.e.7 w x #.f.F G g.h.!.!.. . . . . . . . = ",
". . . . . . . . . . i.[.j.c k.l.0 @.1.m.n.. . . . . . . . . . = ",
"  .   . . . . . . . o.p.q.2 1 r.W @.8.s.{ . . . . . . . . . . . ",
"    . . . . . . . . . t.u.v.w.r x.y.z.A.B.. . . . . . . . . . = ",
"  . . . . . . . . . . . C.D D # n.D e D.. . . . . . . . . . . = ",
"    = = . = . = = = = . = = = =   . = = . = = . = = = = . = = = "};
