/* XPM */
static char * download__1___1__xpm[] = {
"32 32 220 2",
"  	c #292929",
". 	c #444444",
"+ 	c #898886",
"@ 	c #666454",
"# 	c #7C7C68",
"$ 	c #6B6464",
"% 	c #5A5561",
"& 	c #5F6342",
"* 	c #686868",
"= 	c #050102",
"- 	c #0A0101",
"; 	c #08000B",
"> 	c #090119",
", 	c #150717",
"' 	c #191514",
") 	c #A5ABAB",
"! 	c #2A2C16",
"~ 	c #363729",
"{ 	c #9B9666",
"] 	c #C6C66E",
"^ 	c #D4CC7B",
"/ 	c #DBD383",
"( 	c #D2CB66",
"_ 	c #B1B172",
": 	c #6B6C4C",
"< 	c #2D3138",
"[ 	c #262A36",
"} 	c #35354C",
"| 	c #150B00",
"1 	c #FFF799",
"2 	c #F6E674",
"3 	c #FCF978",
"4 	c #FBE56A",
"5 	c #FDE563",
"6 	c #FFFC89",
"7 	c #FDEC96",
"8 	c #85713E",
"9 	c #1D1400",
"0 	c #2A1607",
"a 	c #352824",
"b 	c #EAE486",
"c 	c #EEE679",
"d 	c #F4EA5D",
"e 	c #FEF345",
"f 	c #E9D618",
"g 	c #FFF526",
"h 	c #FEE543",
"i 	c #ECD625",
"j 	c #F7DA22",
"k 	c #FEEE2D",
"l 	c #FDE32B",
"m 	c #E8D507",
"n 	c #4F4E2E",
"o 	c #797233",
"p 	c #FFF475",
"q 	c #F0D234",
"r 	c #F4D825",
"s 	c #FCEA25",
"t 	c #F4DA14",
"u 	c #EDCE14",
"v 	c #F4D40C",
"w 	c #FCDC0C",
"x 	c #F3DA0B",
"y 	c #FDE334",
"z 	c #655C00",
"A 	c #645C1B",
"B 	c #FBF9A6",
"C 	c #F5E325",
"D 	c #FFEA33",
"E 	c #F5DB1B",
"F 	c #D7BC00",
"G 	c #F2D503",
"H 	c #E3C400",
"I 	c #F4D412",
"J 	c #D9C600",
"K 	c #E7CC04",
"L 	c #EED202",
"M 	c #F4E73A",
"N 	c #C9C250",
"O 	c #504E51",
"P 	c #77728A",
"Q 	c #988C33",
"R 	c #FDDD34",
"S 	c #FDDD2B",
"T 	c #FBDB04",
"U 	c #FBDC13",
"V 	c #F4DA03",
"W 	c #FBD614",
"X 	c #FDE31C",
"Y 	c #D8BF27",
"Z 	c #898407",
"` 	c #3A3E45",
" .	c #0B0807",
"..	c #E5DEAA",
"+.	c #F5D748",
"@.	c #FBDD39",
"#.	c #FCDC1D",
"$.	c #FBDC23",
"%.	c #F2DD32",
"&.	c #FEE312",
"*.	c #F3DD3B",
"=.	c #F4E41B",
"-.	c #ABA434",
";.	c #EDCD0B",
">.	c #FDE553",
",.	c #FEE55C",
"'.	c #FFEB65",
").	c #FFEB73",
"!.	c #FFE95E",
"~.	c #EFE102",
"{.	c #979495",
"].	c #FEF46B",
"^.	c #FDE33C",
"/.	c #FEE424",
"(.	c #FAEA0C",
"_.	c #9B8A10",
":.	c #180501",
"<.	c #A99F86",
"[.	c #A9A582",
"}.	c #EBE594",
"|.	c #E7D95E",
"1.	c #F6D51A",
"2.	c #FCE50B",
"3.	c #FAE818",
"4.	c #FCE84A",
"5.	c #F3D96A",
"6.	c #ECDC01",
"7.	c #D9D132",
"8.	c #776E0F",
"9.	c #FDEC53",
"0.	c #FEEC7C",
"a.	c #7C6A00",
"b.	c #FDF985",
"c.	c #E8C805",
"d.	c #FBD50A",
"e.	c #FFFB3A",
"f.	c #7B6700",
"g.	c #A19C58",
"h.	c #F5CC16",
"i.	c #FAE782",
"j.	c #F8D700",
"k.	c #826F00",
"l.	c #150B27",
"m.	c #FED735",
"n.	c #EFF281",
"o.	c #FFF134",
"p.	c #FDEA02",
"q.	c #20122B",
"r.	c #A1A34F",
"s.	c #FFF358",
"t.	c #E8D748",
"u.	c #9FA450",
"v.	c #F7DC99",
"w.	c #F4EA28",
"x.	c #332900",
"y.	c #D5CD0B",
"z.	c #FCF518",
"A.	c #A18C0C",
"B.	c #50534E",
"C.	c #CCC520",
"D.	c #F3F211",
"E.	c #A39322",
"F.	c #948C72",
"G.	c #EDE352",
"H.	c #908E81",
"I.	c #5A5C5D",
"J.	c #727474",
"K.	c #70706E",
"L.	c #96915A",
"M.	c #FDEB3C",
"N.	c #A5A00E",
"O.	c #848436",
"P.	c #4C4C4C",
"Q.	c #1E1900",
"R.	c #FFE8A5",
"S.	c #CDC131",
"T.	c #464646",
"U.	c #828282",
"V.	c #908A89",
"W.	c #F9E302",
"X.	c #867A40",
"Y.	c #897C83",
"Z.	c #555555",
"`.	c #7A7979",
" +	c #5E5E5E",
".+	c #4E4E4F",
"++	c #626262",
"@+	c #2B292A",
"#+	c #2D2D2C",
"$+	c #494949",
"%+	c #6B6B6D",
"&+	c #949387",
"*+	c #554C13",
"=+	c #4E3C0D",
"-+	c #C3AB41",
";+	c #413601",
">+	c #616161",
",+	c #A1913C",
"'+	c #2D2D2D",
")+	c #474847",
"!+	c #7B7A7A",
"~+	c #656567",
"{+	c #606161",
"]+	c #777776",
"^+	c #565656",
"/+	c #504F50",
"(+	c #5F5E62",
"_+	c #695D5D",
":+	c #2A1601",
"<+	c #A29C9A",
"[+	c #393939",
"}+	c #6C6C6B",
"|+	c #737373",
"1+	c #828284",
"2+	c #515152",
"3+	c #6F6F6F",
"4+	c #7A7A79",
"5+	c #6B6B6B",
"6+	c #808080",
"7+	c #0E191D",
"    .   .     .   .       . . .         .     .       .   .   . ",
"  . . . . . . . . . . + @ # $ % @ # & & . . . . . . . . . . . * ",
"  . . . . . . . . . . % = - = ; > , = ' ) . . . . . . . . . . . ",
". . . . . . . . ! ~ ~ { ] ^ / ^ ( ( ] _ : < [ } . . . . . . . * ",
"  . . . . . . . ' ' | _ 1 2 3 4 3 5 6 7 8 9 0 a . . . . . . . * ",
"  . . . . . ' ~ 7 b c d e f g g h i j k l f f m 9 a . . . . . * ",
". . . . . . n o p 4 3 q r s t u v w w x j y y y z A . . . . . . ",
"  . . . ' - B 3 C l D E F G H I u J K L u l D I M N | O . . . . ",
"  . . P : Q 5 h R S I G T U I x V x U W v v U X y Y Z 8 P . . * ",
"  . `  ...1 +.@.j #.v v $.R @.y %.%.S #.W U U &.r *.=.-.= + . * ",
". . % = / p *.l ;.x x j h >.,.'.).!.h l #.I v v ~.s =.Q , {.. * ",
". . @ 9 ( ].r #.;.V &.^.!.>.>.'.).!.h /.U U I u (.D k _.:.<.. * ",
". ! [.}.|.%.#.H 1.2.3.4.'.M C ^.*.%.E U &.X S R 5.,.6.s 7.8.[ * ",
"  = _ b 9.C H #.S 2.3.,.'.C 6.t t x G T w X l R 7 0.t &.=.a., * ",
"  = _ b.%.E v c.R (.3.4 )./.V w T T T d.U #./.l |.].S S e.f.= * ",
"  = g.p e t v h.R 2.=.).i.l j.W T d.d.W W #./.s 6 5 j W T k.l.* ",
"  ; _ 6 +.m.L K m.2.3.).0.C j.$.V V v W #.#.X 3.n.].o.G p.a.> . ",
"  q.r.2 s.m.L ;.R 2.=.4 0.l j.#.V V G x U X /./.].t.l l s f., . ",
"  = u.6 D u T ;.l 2.=.4 0.y j.U w T j.j.w X /.l 0.b./.c.o.f.- . ",
"  = _ b.k 1.J /./.&.C 5 ).y V w U w j.j.T U S y v.).V V s a., * ",
".  ._ }.w.s G F t &./.>.!.R G T d.d.T T d.#.y h 7 5 6.g 9.z = * ",
"  . : x.y.E t k ;.t E y ^.r v j.v x w U #.l h 9.h *.z.A.:.{ . . ",
". . B.| C.y /.K u t x t X $.v w w U #.S ^.4.9.9.3.f D.E.:.F.. * ",
"  . O = 7.e 1.X E E G V &.X #.w X X r @.4.9.9.G.=.C D._.- H.. * ",
"I.J.K.n L.-.i p.l &.K /.>.+.M.(.w.w.e.i 9.s.M C p.J N.O.B.. . * ",
"  . P.. Q.| 3 f u j y >.i.7 R.7 R.v.R.7 ).@.i r z.S.| $ . . . * ",
"  T.T.U.V.F.8.E.D i %.h e e G.d M.9.>.M.V W.2.W Z X.Y.. . . . * ",
"Z.`. +.+++. = x.z.e.w.6.6.6.(.l $./.K &.6.(.s f ; @+. . . . . * ",
"#+$+#+. %+. . &+*+=+=+-+M.V #.m.h.&.W.o.A.;+;+A . . . . . . . . ",
"    . . >+. . . ' = 9 ,+M 6.j.d.u 3.~.C.o q.l.} . . . . . . . * ",
"'+. . )+!+~+{+]+^+/+(+_+9 x.x.:+:+:+9 x.<+. . . . . . . . . . * ",
"[+'+* }+|+1+2+3+4+5+6+. @+` 7+[ [ [ [ @+. * * . * * * * . * * * "};
