/* XPM */
static char * Collectible_xpm[] = {
"32 32 26 1",
" 	c #292929",
".	c #444444",
"+	c #4B4B4B",
"@	c #3F3F3F",
"#	c #686868",
"$	c #454545",
"%	c #434343",
"&	c #402A00",
"*	c #432B05",
"=	c #FFFCCD",
"-	c #3F2704",
";	c #FFFED9",
">	c #FFDC16",
",	c #FFE263",
"'	c #CC9915",
")	c #FFDC18",
"!	c #3C3C3C",
"~	c #474747",
"{	c #4F4F4F",
"]	c #383838",
"^	c #424242",
"/	c #B17818",
"(	c #4E2F09",
"_	c #3C2400",
":	c #414141",
"<	c #4E4E4E",
"  . .  . .   ...    .  .   . . .",
" ..............+@..............#",
" ...............................",
"...............$%..............#",
" ..............................#",
" ..........&&&&&&&&**..........#",
"...........&&&&&&&&**...........",
" ........**==========--.........",
" ........**==========--........#",
" ......**;;>>>>,,,,,,,,--......#",
".......**;;>>>>,,,,,,,,--......#",
".....--;;>>''>>>>>>'',,>>--....#",
".....--;;>>''>>>>>>'',,>>--....#",
" ....-->>))''''))''''>>>>--....#",
" ....-->>))''''))''''>>>>--....#",
" !.$.-->>))''))''))''>>>>--~$.{#",
" ]^..-->>))''))''))''>>>>--.%...",
" ....-->>))''))''))''>>>>--.....",
" ....-->>))''))''))''>>>>--.....",
" ....-->>>>''))))))''>>//--....#",
".....-->>>>''))))))''>>//--....#",
" ......(())>>>>>>>>))//**.......",
".......(())>>>>>>>>))//**......#",
" ........__//////////&&........#",
" ........__//////////&&........#",
" ..........__________..........#",
" ..........__________..........#",
"................:..............#",
" . .............%...............",
"  .............................#",
" ..............<!..............#",
"  ##.#.####.#### .##.##.####.###"};
