/* XPM */
static char * enemy_xpm[] = {
"32 32 92 2",
"  	c #292929",
". 	c #444444",
"+ 	c #140921",
"@ 	c #24103C",
"# 	c #7534C2",
"$ 	c #8139D5",
"% 	c #7F39D4",
"& 	c #12081D",
"* 	c #686868",
"= 	c #9241F4",
"- 	c #9442F7",
"; 	c #9040F0",
"> 	c #833ADA",
", 	c #1E0C31",
"' 	c #0D0215",
") 	c #53138B",
"! 	c #8B3AE7",
"~ 	c #210E35",
"{ 	c #8D3BEA",
"] 	c #8E3CEC",
"^ 	c #170426",
"/ 	c #6118A2",
"( 	c #8036D4",
"_ 	c #010000",
": 	c #701FBC",
"< 	c #6616AB",
"[ 	c #6B1AB2",
"} 	c #8836E2",
"| 	c #712FBB",
"1 	c #8636DE",
"2 	c #0F0519",
"3 	c #8737E1",
"4 	c #6110A2",
"5 	c #5C1499",
"6 	c #4E0D82",
"7 	c #7E35D2",
"8 	c #130205",
"9 	c #843BDB",
"0 	c #8937E4",
"a 	c #280642",
"b 	c #570E91",
"c 	c #7B33CD",
"d 	c #270A23",
"e 	c #780A1F",
"f 	c #790B20",
"g 	c #8B3BE8",
"h 	c #210536",
"i 	c #280A25",
"j 	c #6916AE",
"k 	c #550E8E",
"l 	c #4C0C7E",
"m 	c #6E2EB8",
"n 	c #6C2CB4",
"o 	c #180429",
"p 	c #571691",
"q 	c #10071B",
"r 	c #1C092D",
"s 	c #772FC5",
"t 	c #5A1496",
"u 	c #3C3C3C",
"v 	c #454545",
"w 	c #464646",
"x 	c #280C43",
"y 	c #661DAA",
"z 	c #590F95",
"A 	c #474747",
"B 	c #4F4F4F",
"C 	c #383838",
"D 	c #424242",
"E 	c #8D3CEB",
"F 	c #434343",
"G 	c #414141",
"H 	c #8F40EE",
"I 	c #2B1046",
"J 	c #311351",
"K 	c #853BDD",
"L 	c #9040EF",
"M 	c #240D3B",
"N 	c #511287",
"O 	c #8231D8",
"P 	c #8E3BEC",
"Q 	c #1F0534",
"R 	c #2D104A",
"S 	c #220738",
"T 	c #903EEF",
"U 	c #410A6C",
"V 	c #4F1185",
"W 	c #460E76",
"X 	c #260B40",
"Y 	c #4A117C",
"Z 	c #6829AD",
"` 	c #4E4E4E",
"    .   .     .   . + + + + + + +       .     .       .   .   . ",
"  . . . . . . . . @ # $ % % % $ # @ & . . . . . . . . . . . . * ",
"  . . . . . . . @ # = - - - = = ; > # @ + . . . . . . . . . . . ",
". . . . . . . , # ; > $ $ > ; ; ; = ; > # @ . . . . . . . . . * ",
"  . . . . . ' ) ! # ~ & & , # ; ; { { ] ; # @ . . . . . . . . * ",
"  . . . . . ^ / ( ~ _ _ _ _ , # ] : < [ } { | , . . . . . . . * ",
". . . . . ' ) 1 # 2 _ _ _ _ _ , # 3 [ 4 5 < < 6 ' . . . . . . . ",
"  . . . . ' 5 7 ~ 8 _ _ 8 _ _ _ ~ 9 0 5 a 6 4 b ^ . . . . . . . ",
"  . . . . ' 5 c d e 8 8 f 8 _ _ 2 # g < 6 h b 4 6 ' . . . . . * ",
"  . . . . ' 5 c i e 8 8 f 8 _ _ _ ~ 7 j k ^ l 4 k ' . . . . . * ",
". . . . . ' ) c & 8 _ _ 8 _ _ _ _ & c j k ' ^ 6 l ' . . . . . * ",
". . . . . . , m ~ _ _ _ _ _ _ _ _ ~ c < 6 ' . ' ' . . . . . . * ",
". . . . . . ' ) n , _ _ _ _ _ _ , n [ b ^ . . . . . . . . . . * ",
"  . . . . . . o p n ~ q ' ' ' r n [ b l ' . . . . . . . . . . * ",
"  . . . . . . . o p s s t k k b 5 6 ^ ' . . . . . . . . . . . * ",
"  u . v . . w . . x y [ j j < z h ^ . . . w . A w . v A v . B * ",
"  C D . . . . + @ # g { { E } [ 5 6 o . . . . . . F G . F . . . ",
"  . . . . + @ # > ; E $ % > H E } [ 6 ' . . . . . . . . . . . . ",
"  . . . @ # > ; = } t I ~ J K = ; } 5 ^ . . . . . . . . . . . . ",
"  . . + # ; - ; 3 t J # $ > L ; = E [ 6 ' . . . . . . . . . . * ",
". . . + c ] E { / M # ; - = ; ; ; ; } t ' . . . . . . . . . . * ",
"  . . 2 N 5 [ } t r c ] { ] ; ; ; = { t ' . . . . . . . . . . . ",
". . . . ' ^ ) O / h ) 5 t / 3 ; ; = { t ' . . . . . . . . . . * ",
"  . . . . . o / O t h ^ ^ h t 3 ; = { t ' . . . . . . . . . . * ",
"  . . . . . ' t P 1 ) t t l Q / ] = { 5 ' . . . . . . . . . . * ",
"  . . . . . ' t ( $ R 7 ! / Q ) 3 ; { 5 ' . . . . . . . . . . * ",
"  . . . . . ' l R n R # ! c ) S y T ] 5 ' . . . . . . . . . . * ",
". . . . . . ' U o V W X Y I Z ~ n > 1 ) ' . . . . . . . . . . * ",
"  .   . . . _ ' . ' ' . ' ' W 2 & , Y ^ _ . . . . . . . . . . . ",
"    . . . . _ . . _ . . . . ' _ . _ ' . _ . . . . . . . . . . * ",
"  . . . . . . . . . . . . . . ` u _ . . . . . . . . . . . . . * ",
"    * * . * . * * * * . * * * *   . * * . * * . * * * * . * * * "};
