/* XPM */
static char *enemy[] = {
/* columns rows colors chars-per-pixel */
"32 32 114 2 ",
"   c None",
".  c #010000",
"X  c #130205",
"o  c #0D0215",
"O  c #0F0519",
"+  c #10071B",
"@  c #12081D",
"#  c #170426",
"$  c #140921",
"%  c #180429",
"&  c #1C092D",
"*  c #1F0534",
"=  c #1E0C31",
"-  c #270A23",
";  c #280A25",
":  c #210536",
">  c #210E35",
",  c #220738",
"<  c #240D3B",
"1  c #24103C",
"2  c #780A1F",
"3  c #790B20",
"4  c #280642",
"5  c #260B40",
"6  c #280C43",
"7  c #2B1046",
"8  c #2D104A",
"9  c #311351",
"0  c #410A6C",
"q  c #460E76",
"w  c #4C0C7E",
"e  c #4A117C",
"r  c #4E0D82",
"t  c #550E8E",
"y  c #4F1185",
"u  c #511287",
"i  c #53138B",
"p  c #570E91",
"a  c #590F95",
"s  c #571691",
"d  c #5A1496",
"f  c #5C1499",
"g  c #6110A2",
"h  c #6118A2",
"j  c #6616AB",
"k  c #6916AE",
"l  c #661DAA",
"z  c #6B1AB2",
"x  c #701FBC",
"c  c #6829AD",
"v  c #6C2CB4",
"b  c #6E2EB8",
"n  c #712FBB",
"m  c #772FC5",
"M  c #7534C2",
"N  c #7B33CD",
"B  c #7E35D2",
"V  c #7F39D4",
"C  c #8036D4",
"Z  c #8136D7",
"A  c #8039D4",
"S  c #8039D5",
"D  c #8139D5",
"F  c #8139D7",
"G  c #8231D8",
"H  c #8332DA",
"J  c #8536DE",
"K  c #8636DE",
"L  c #8637DF",
"P  c #823AD8",
"I  c #833AD9",
"U  c #8339DA",
"Y  c #833ADA",
"T  c #833BDA",
"R  c #843BDB",
"E  c #853BDD",
"W  c #8636E0",
"Q  c #8736E0",
"!  c #8737E1",
"~  c #8836E2",
"^  c #8837E2",
"/  c #8837E3",
"(  c #8937E4",
")  c #8A38E7",
"_  c #8B3AE7",
"`  c #8B3BE7",
"'  c #8B3BE8",
"]  c #8C3BE9",
"[  c #8C3BEA",
"{  c #8D3BEA",
"}  c #8D3BEB",
"|  c #8C3CEA",
" . c #8D3CEB",
".. c #8E3BEC",
"X. c #8D3CEC",
"o. c #8E3CEC",
"O. c #903EEF",
"+. c #8F40EE",
"@. c #9040EF",
"#. c #9040F0",
"$. c #9140F1",
"%. c #9141F1",
"&. c #9140F2",
"*. c #9141F2",
"=. c #9241F2",
"-. c #9241F3",
";. c #9241F4",
":. c #9341F5",
">. c #9342F4",
",. c #9342F5",
"<. c #9342F6",
"1. c #9442F5",
"2. c #9442F6",
"3. c #9442F7",
/* pixels */
"                    $ $ $ $ $ $ $                               ",
"                  1 M D V V V D M 1 @                           ",
"                1 M ;.3.3.3.;.;.#.Y M 1 $                       ",
"              = M #.Y D D Y #.#.#.;.#.Y M 1                     ",
"            o i _ M > @ @ = M #.#.{ { o.#.M 1                   ",
"            # h C > . . . . = M o.x j z ~ { n =                 ",
"          o i K M O . . . . . = M ! z g f j j r o               ",
"          o f B > X . . X . . . > R ( f 4 r g p #               ",
"          o f N - 2 X X 3 X . . O M ' j r : p g r o             ",
"          o f N ; 2 X X 3 X . . . > B k t # w g t o             ",
"          o i N @ X . . X . . . . @ N k t o # r w o             ",
"            = b > . . . . . . . . > N j r o   o o               ",
"            o i v = . . . . . . = v z p #                       ",
"              % s v > + o o o & v z p w o                       ",
"                % s m m d t t p f r # o                         ",
"                  6 l z k k j a : #                             ",
"              $ 1 M ' { {  .~ z f r %                           ",
"          $ 1 M Y #. .D V Y +. .~ z r o                         ",
"        1 M Y #.;.~ d 7 > 9 E ;.#.~ f #                         ",
"      $ M #.3.#.! d 9 M D Y @.#.;. .z r o                       ",
"      $ N o. .{ h < M #.3.;.#.#.#.#.~ d o                       ",
"      O u f z ~ d & N o.{ o.#.#.#.;.{ d o                       ",
"        o # i G h : i f d h ! #.#.;.{ d o                       ",
"            % h G d : # # : d ! #.;.{ d o                       ",
"            o d ..K i d d w * h o.;.{ f o                       ",
"            o d C D 8 B _ h * i ! #.{ f o                       ",
"            o w 8 v 8 M _ N i , l O.o.f o                       ",
"            o 0 % y q 5 e 7 c > v Y K i o                       ",
"            . o   o o   o o q O @ = e # .                       ",
"            .     .         o .   . o   .                       ",
"                                  .                             ",
"                                                                "
};
