/* XPM */
static char * Exit_xpm[] = {
"32 32 28 1",
" 	c #292929",
".	c #444444",
"+	c #1C1117",
"@	c #523A42",
"#	c #686868",
"$	c #422835",
"%	c #301D27",
"&	c #563F2A",
"*	c #7A5937",
"=	c #664729",
"-	c #8D6845",
";	c #487085",
">	c #5A8CA6",
",	c #35271F",
"'	c #1D1118",
")	c #785836",
"!	c #2B1D1C",
"~	c #775735",
"{	c #795836",
"]	c #6D4F38",
"^	c #775635",
"/	c #36281F",
"(	c #6B4C2D",
"_	c #755534",
":	c #614429",
"<	c #5F462F",
"[	c #59412A",
"}	c #201418",
"  . .  . ++++++++++++++.   . . .",
" .....+++@@+@@@+@@@+@@@+++.....#",
" ...++@@@$$+$$%+$$%+$$%+@@++....",
"...+@@+%$++++++++++++++@$$@@+..#",
" .+$$$+++&&&&&&&&&&&&&&+++$$%+.#",
" ++%%+&&&*&***&***&*=*&=&&+++++#",
".+@++&&=**&***&***&*=-&***&+@@+.",
"+$$@+*&=-*&***&**-&*=-&=**&++$$+",
"+$$+&*&=-*&***&***&*=-&=-*&&+%%+",
"%%%+**&=-*&*-*&*=-&=-*&=-*&*++++",
"+++&**&=-*&***&*=-&=-*&=-*&*&+@@",
"@@+***&*-*&*-*&*=-&=-*&*=-&**+$$",
"$+++**&***&=-*&*=-&***&*=-&**+$$",
"%+;+++++-*&=-*&**-&*-*&*=*&*-+%%",
"++;>;>;+**&=-*&***&***&***&**+++",
"@+;+++++**&=-*&**-&***&*=*&*-+@@",
"$+++,,,,**&=-*&***&*-*&***&=-+$$",
"%%+,**&***&*-*&=**&=-*&***&=-+%%",
"+++***&***&***&***&=-*&+++&=-+++",
"@@+***&*-*&***&=**&=-+++;+++-+@@",
"$$+*=*&***&***&=-*&=-+>>>>>+-+$$",
"%%+*=-&*-*&***&=-*&=-+>+++>+-+%%",
"+++*=-&=-*&*=*&=-*&=*+;+++;+-++'",
"+$$+&*&=-*&***&***&*),+>>>+,!%%+",
"+$$@+*&=-*&***&**-&~{=,+++,]+$$+",
" +@++&&=**&***&***&*^=&,,/&+@@+#",
" ++%%+&&&*&***&***&*((&_:<+++++#",
"..+$$$+++&&&&&&&&&&&&[&}++$$%+.#",
" . +@@+%$++++++++++++++@$$@@+...",
"  ..++@@@$$+$$%+$$%+$$%+@@++...#",
" .....+++@@+@@@+@@@+@@@+++.....#",
"  ##.#.##++++++++++++++.####.###"};
