/* XPM */
static char * Exitopen_xpm[] = {
"32 32 22 1",
" 	c #292929",
".	c #444444",
"+	c #1C1117",
"@	c #523A42",
"#	c #686868",
"$	c #422835",
"%	c #301D27",
"&	c #000000",
"*	c #563F2A",
"=	c #664729",
"-	c #8D6845",
";	c #7A5937",
">	c #487085",
",	c #5A8CA6",
"'	c #35271F",
")	c #5788A1",
"!	c #190F15",
"~	c #1A1015",
"{	c #36251F",
"]	c #351F2A",
"^	c #2D1C24",
"/	c #301D26",
"  . .  . ++++++++++++++.   . . .",
" .....+++@@+@@@+@@@+@@@+++.....#",
" ...++@@@$$+$$%+$$%+$$%+@@++....",
"...+@@+%$++++++++++++++@$$@@+..#",
" .+$$$+++&&&&&&&&&&&&&&+++$$%+.#",
" ++%%++&&&&&&&&&&&&&&&&&&&+++++#",
".+@++*+&&&&&&&&&&&&&&&&&&&&+@@+.",
"+$$@+*+&&&&&&&&&&&&&&&&&&&&++$$+",
"+$$+*=+&&&&&&&&&&&&&&&&&&&&&+%%+",
"%%%+-=+&&&&&&&&&&&&&&&&&&&&&++++",
"+++*-=+&&&&&&&&&&&&&&&&&&&&&&+@@",
"@@+-;=+&&&&&&&&&&&&&&&&&&&&&&+$$",
"$+++;=+&&&&&&&&&&&&&&&&&&&&&&+$$",
"%+>++=+&&&&&&&&&&&&&&&&&&&&&&+%%",
"++>,+=+&&&&&&&&&&&&&&&&&&&&&&+++",
"@+>++=+&&&&&&&&&&&&&&&&&&&&&&+@@",
"$+++'=+&&&&&&&&&&&&&&&&&&&&&&+$$",
"%%+';*+&&&&&&&&&&&&&&&&&&&&&&+%%",
"+++;-*+>+&&&&&&&&&&&&&&&&&&&&+$$",
"@@+;;*+,+&&&&&&&&&&&&&&&&&&&&+%%",
"$$+-;*+,+&&&&&&&&&&&&&&&&&&&&+++",
"%%+-;*+>+&&&&&&&&&&&&&&&&&&&&+@@",
"++++-=+)!&&&&&&&&&&&&&&&&&&&&+$$",
"+$$+*=+~&&&&&&&&&&&&&&&&&&&&+%%+",
"+$$@+*+&&&&&&&&&&&&&&&&&&&&++$$+",
" +@++{+&&&&&&&&&&&&&&&&&&&&+@@+#",
" ++]^++&&&&&&&&&&&&&&&&&&&+++++#",
"..+$$/+++&&&&&&&&&&&&&&+++$$%+.#",
" . +@@+%$++++++++++++++@$$@@+...",
"  ..++@@@$$+$$%+$$%+$$%+@@++...#",
" .....+++@@+@@@+@@@+@@@+++.....#",
"  ##.#.##++++++++++++++.####.###"};
