/* XPM */
static char * Floor_xpm[] = {
"32 32 18 1",
" 	c #292929",
".	c #444444",
"+	c #4B4B4B",
"@	c #3F3F3F",
"#	c #686868",
"$	c #454545",
"%	c #434343",
"&	c #464646",
"*	c #3C3C3C",
"=	c #474747",
"-	c #4F4F4F",
";	c #383838",
">	c #424242",
",	c #414141",
"'	c #2A2A2A",
")	c #323232",
"!	c #484848",
"~	c #4E4E4E",
"  . .  . .   ...    .  .   . . .",
" ..............+@..............#",
" ...............................",
"...............$%..............#",
" ..............................#",
" ..............$...............#",
"................................",
" ..............&................",
" ..............................#",
" ........ .....................#",
".......... ....&...............#",
"........... ...&%..............#",
"...........  ..................#",
" ..............$...............#",
" ...............%..............#",
" *.$..&...$$&....$...&.=&.$=$.-#",
" ;>......................%,.%...",
" ...............................",
" ...............%...............",
" ..............................#",
".................... ..........#",
" ..............$... ............",
".................;  ...........#",
" ..............&.' ............#",
" ...............) .............#",
" ..............!...............#",
" ..............................#",
"................,..............#",
" . .............%...............",
"  .............................#",
" ..............~*..............#",
"  ##.#.####.#### .##.##.####.###"};
