/* XPM */
static char * player_right_xpm[] = {
"32 32 20 1",
" 	c #292929",
".	c #444444",
"+	c #4B4B4B",
"@	c #3F3F3F",
"#	c #686868",
"$	c #004338",
"%	c #00BC9F",
"&	c #00957E",
"*	c #000000",
"=	c #FFFFFF",
"-	c #3C3C3C",
";	c #454545",
">	c #464646",
",	c #474747",
"'	c #4F4F4F",
")	c #383838",
"!	c #424242",
"~	c #434343",
"{	c #414141",
"]	c #4E4E4E",
"  . .  . .   ...    .  .   . . .",
" ..............+@..............#",
" ...............................",
".............$$$$$$$...........#",
" ...........$%%%%%%&$..........#",
" ..........$%$$$$%%%&$.........#",
"..........$%$****$%%%&$.........",
" ........$%$******$%%&$.........",
" ........$%$******$%%&&$.......#",
" ........$%$=***=*$%&&&&$......#",
".........$%$=***=*$%&$&&$......#",
".........$&$******$%&$$$.......#",
".........$&$*****$%&&$.........#",
" .........$&$***$&&&$..........#",
" ..........$&$$$&&$$...........#",
" -.;..>...$&%%%%%&&&$>.,>.;,;.'#",
" )!......$&%%%%%%%%%&$...~{.~...",
" ........$&%%%%%%%%%&$..........",
" ........$%%%%%%%%%%%&$.........",
" ........$%%%%%%%%%%%&$........#",
"........$&%%%%&%%%%%%&&$.......#",
" .......$&%%%%&%%%%%%&&&$.......",
".......$&&&%%&$&%%%%%&&&$......#",
" ......$&&&%&&$&&%&%&&&&$......#",
" ......$&&&&&$*$&&%&&&&&$......#",
" .......$$&&&$**$&&&&$&$.......#",
" .......$.$$$***$$$$$.$........#",
"...........*....*..............#",
" . .........*...~*..............",
"  .............................#",
" ..............]-..............#",
"  ##.#.####.#### .##.##.####.###"};
